<?xml version="1.0" encoding="utf-8"?>
<!-- Generator: Adobe Illustrator 21.0.0, SVG Export Plug-In . SVG Version: 6.00 Build 0)  -->
<svg version="1.1" id="图层_1" xmlns="http://www.w3.org/2000/svg" xmlns:xlink="http://www.w3.org/1999/xlink" x="0px" y="0px"
	 viewBox="0 0 100 100" style="enable-background:new 0 0 100 100;" xml:space="preserve">
<style type="text/css">
	.st0{clip-path:url(#SVGID_2_);}
	.st1{fill:url(#SVGID_3_);}
	.st2{fill:url(#SVGID_4_);}
	.st3{fill:none;stroke:url(#SVGID_5_);stroke-width:40;}
</style>
<g>
	<defs>
		<path id="SVGID_1_" d="M2,4h7.8c25.1,0,45.5,20.4,45.5,45.5S34.9,95,9.8,95H2V75h7.8c14.1,0,25.5-11.4,25.5-25.5S23.8,24,9.8,24H2
			V4z M38.3,4h32C85.6,4,98,16.4,98,31.7c0,6.5-2.3,12.8-6.4,17.8c9.8,11.8,8.2,29.3-3.6,39.1C83,92.7,76.7,95,70.3,95h-32
			c7.9-4.9,14.3-11.8,18.7-20h13.3c4.3,0,7.8-3.5,7.8-7.8s-3.5-7.8-7.8-7.8h-7.8c1.3-6.6,1.3-13.4,0-20h7.8c4.3,0,7.8-3.5,7.8-7.8
			S74.5,24,70.3,24H57C52.6,15.8,46.1,8.9,38.3,4z"/>
	</defs>
	<clipPath id="SVGID_2_">
		<use xlink:href="#SVGID_1_"  style="overflow:visible;"/>
	</clipPath>
	<g class="st0">
		
			<linearGradient id="SVGID_3_" gradientUnits="userSpaceOnUse" x1="-50" y1="-25" x2="-7" y2="-68" gradientTransform="matrix(1 0 0 -1 0 102)">
			<stop  offset="0" style="stop-color:#F9A03C"/>
			<stop  offset="1" style="stop-color:#F7974E"/>
		</linearGradient>
		<path class="st1" d="M-125-98v300h300L-125-98z"/>
		
			<linearGradient id="SVGID_4_" gradientUnits="userSpaceOnUse" x1="109" y1="170" x2="172" y2="107" gradientTransform="matrix(1 0 0 -1 0 102)">
			<stop  offset="0" style="stop-color:#B84E51"/>
			<stop  offset="1" style="stop-color:#F68E48"/>
		</linearGradient>
		<path class="st2" d="M-71-98h300v300L-71-98z"/>
		
			<linearGradient id="SVGID_5_" gradientUnits="userSpaceOnUse" x1="3.2824" y1="99.2907" x2="88.2824" y2="13.2907" gradientTransform="matrix(1 0 0 -1 0 102)">
			<stop  offset="0" style="stop-color:#F26D58"/>
			<stop  offset="1" style="stop-color:#F9A03C"/>
		</linearGradient>
		<path class="st3" d="M-98-98l300,300"/>
	</g>
</g>
</svg>
