<?xml version="1.0" encoding="utf-8"?>
<!-- Generator: Adobe Illustrator 21.0.0, SVG Export Plug-In . SVG Version: 6.00 Build 0)  -->
<svg version="1.1" id="图层_1" xmlns="http://www.w3.org/2000/svg" xmlns:xlink="http://www.w3.org/1999/xlink" x="0px" y="0px"
	 viewBox="0 0 750 200" style="enable-background:new 0 0 750 200;" xml:space="preserve">
<style type="text/css">
	.st0{fill:#1F394F;}
	.st1{fill:#A9334C;}
	.st2{fill:#FFFFFF;}
	.st3{fill:#1F394F;fill-opacity:0;}
</style>
<path class="st0" d="M695.3,107.3C695.3,107.3,695.4,107.3,695.3,107.3L695.3,107.3C695.3,107.3,695.3,107.3,695.3,107.3z"/>
<path class="st0" d="M589.4,77.9c-3-8.6-11.2-14.7-20.8-14.7h-51.8v14.7h51.8v0c4.1,0,7.3,3.3,7.3,7.3c0,4.1-3.3,7.3-7.3,7.3v0
	h-31.1c-2.1,0.1-4.1,0.5-6,1.2c-6.3,2.2-11.2,7.2-13.4,13.5c-0.8,2.3-1.2,4.7-1.2,7.3v22.1h14.7v-22.1l0,0l0,0
	c0-3.8,2.9-6.9,6.5-7.3h14.2l14.4,29.4H583l-14.4-29.4h0c9.6,0,17.7-6.1,20.8-14.7c0.8-2.3,1.3-4.8,1.3-7.3
	C590.7,82.7,590.2,80.2,589.4,77.9z"/>
<polygon class="st0" points="496.6,136.6 512.2,136.6 485.6,63.2 480.6,63.2 465,63.2 438.4,136.6 438.4,136.6 454,136.6 
	459.4,121.9 469.5,121.9 480.1,121.9 485.5,107.2 474.8,107.2 464.7,107.2 475.3,77.9 475.3,77.9 "/>
<g>
	<polygon class="st0" points="375.1,63.2 360.4,63.2 360.4,136.6 375.1,136.6 375.1,107.3 414.4,107.3 419.5,92.6 375.1,92.6 	"/>
	<polygon class="st0" points="419.5,63.2 419.5,77.8 419.5,92.6 419.5,136.6 434.2,136.6 434.2,63.2 	"/>
</g>
<path class="st0" d="M304,121.9L304,121.9L304,121.9c-4.1,0-7.3-3.3-7.3-7.3h0V85.2h0l0,0c0-4,3.3-7.3,7.3-7.3l0,0v0h46.5l5.3-14.7
	H304c-2.6,0-5,0.4-7.3,1.3c-6.3,2.2-11.2,7.2-13.4,13.4c-0.8,2.3-1.3,4.8-1.3,7.3l0,0v29.4c0,2.6,0.4,5,1.3,7.3
	c2.2,6.2,7.2,11.2,13.4,13.4c2.3,0.8,4.8,1.3,7.3,1.3h46.5l5.3-14.7L304,121.9L304,121.9z"/>
<polygon class="st0" points="203.5,63.2 203.5,77.9 272,77.9 277.3,63.2 "/>
<path class="st0" d="M225.5,121.9L225.5,121.9L225.5,121.9c-4.1,0-7.3-3.3-7.3-7.3l0,0v-7.3H272l5.3-14.7h-73.8v14.7v7.3l0,0
	c0,2.6,0.4,5,1.3,7.3c2.2,6.2,7.2,11.2,13.4,13.4c2.3,0.8,4.8,1.3,7.3,1.3h32.4H272l5.3-14.7l0,0L225.5,121.9L225.5,121.9z"/>
<polygon class="st0" points="594.9,63.2 594.9,77.9 624.4,77.9 624.4,136.6 639.1,136.6 639.1,77.9 663.4,77.9 668.7,63.2 "/>
<path class="st0" d="M707.5,103.6c-0.3,0.2-0.6,0.4-0.9,0.6C706.9,104,707.2,103.8,707.5,103.6L707.5,103.6z"/>
<path class="st0" d="M725.1,92.6h-29.8v0l0,0c-4.1,0-7.3-3.3-7.3-7.3c0-4,3.3-7.3,7.3-7.3l0,0v0h46.5l5.3-14.7h-51.8l0,0
	c-9.6,0-17.7,6.1-20.8,14.7c-0.8,2.3-1.3,4.8-1.3,7.3c0,2.6,0.4,5,1.3,7.3c3,8.5,11.2,14.7,20.7,14.7h29.8l0,0
	c4.1,0,7.3,3.3,7.3,7.3c0,4-3.3,7.3-7.3,7.3v0h-51.8v14.7h51.8c9.6,0,17.7-6.1,20.8-14.7c0.8-2.3,1.3-4.8,1.3-7.3
	c0-2.6-0.4-5-1.3-7.3C742.9,98.7,734.7,92.6,725.1,92.6z"/>
<g>
	<path class="st1" d="M85.9,15.1C39,15.1,1,53.1,1,99.9c0,46.9,38,84.9,84.9,84.9c9.6,0,18.8-1.7,27.4-4.6
		c30.5-10.4,53.2-37.7,56.9-70.8c0.3-3.1,0.6-6.3,0.6-9.5C170.7,53.1,132.7,15.1,85.9,15.1z"/>
</g>
<g>
	<path class="st2" d="M142,122.8c-1.3-0.5-2.7-0.7-4-0.6c0.2-1,0.3-2.1,0.2-3.1c-0.3-3.7-2.7-7.1-6.4-8.5c-3.8-1.4-8-0.4-10.7,2.3
		c1.1,0,2.2,0.2,3.2,0.6c4.9,1.8,7.3,7.3,5.5,12.1c-0.7,1.8-1.8,3.3-3.3,4.3c-2.5,1.8-5.8,2.3-8.8,1.2c-4.9-1.8-7.3-7.3-5.5-12.1
		c0.2-0.6,0.5-1.2,0.9-1.8h0c0,0,0,0,0,0c1.6-2.4,2.9-5.1,4-7.9c8.3-21.9-2.7-46.5-24.7-54.8c-22-8.3-46.5,2.7-54.8,24.7
		c-2.3,6-3.1,12.2-2.6,18.2c0,0.2,0,0.4,0,0.6c1.8,20.4,14.9,39,35.3,46.7c20.8,7.9,43.3,2.3,58.1-12.3c2.5-2.5,6.4-3.4,9.9-2
		c4.2,1.6,6.6,5.9,6,10.2c1.6-1.1,2.9-2.7,3.6-4.7C149.9,130.6,147.2,124.8,142,122.8z"/>
</g>
<rect x="203.5" y="63.2" class="st3" width="73.8" height="73.4"/>
<rect x="281.9" y="63.2" class="st3" width="73.8" height="73.4"/>
<rect x="360.4" y="63.2" class="st3" width="73.8" height="73.4"/>
<rect x="438.8" y="63.2" class="st3" width="73.8" height="73.4"/>
<rect x="517.3" y="63.2" class="st3" width="73.8" height="73.4"/>
<rect x="595.7" y="63.2" class="st3" width="73.8" height="73.4"/>
<rect x="674.2" y="63.2" class="st3" width="73.8" height="73.4"/>
</svg>
