<?xml version="1.0" encoding="utf-8"?>
<!-- Generator: Adobe Illustrator 21.0.0, SVG Export Plug-In . SVG Version: 6.00 Build 0)  -->
<svg version="1.1" id="图层_1" xmlns="http://www.w3.org/2000/svg" xmlns:xlink="http://www.w3.org/1999/xlink" x="0px" y="0px"
	 viewBox="0 0 420 74" style="enable-background:new 0 0 420 74;" xml:space="preserve">
<style type="text/css">
	.st0{fill:#EEEAEA;}
	.st1{fill:#8087E8;}
	.st2{fill:#30426B;}
	.st3{fill:#6699A1;}
	.st4{fill:#78758C;}
	.st5{fill:#A3EDBA;}
</style>
<g>
	<path class="st0" d="M125.7,44.7h-19v10.9c0,1.2-0.9,2.1-2.1,2.1c-1.2,0-2.1-0.9-2.1-2.1V31.3c0-1.2,0.9-2.1,2.1-2.1
		c1.2,0,2.1,0.9,2.1,2.1v9.4h19v-9.4c0-1.2,0.9-2.1,2.1-2.1c1.2,0,2.1,0.9,2.1,2.1v24.3c0,1.2-0.9,2.1-2.1,2.1
		c-1.2,0-2.1-0.9-2.1-2.1V44.7z"/>
	<path class="st0" d="M146.4,55.5c0,1.2-0.9,2.1-2.1,2.1s-2.1-0.9-2.1-2.1V31.3c0-1.2,0.9-2.1,2.1-2.1s2.1,0.9,2.1,2.1V55.5z"/>
	<path class="st0" d="M176.6,45.4c0-1.2,0.9-2,2.1-2c1.2,0,2.1,0.9,2.1,2.1V52c0,0.5-0.3,1.2-0.7,1.6c-2.6,2.6-6.2,4.2-10.2,4.2
		c-8,0-14.4-6.4-14.4-14.4c0-8,6.4-14.4,14.4-14.4c4,0,7.6,1.6,10.2,4.2c0.8,0.8,0.8,2.1,0,2.9c-0.8,0.8-2.1,0.9-3,0.1
		c-1.9-1.9-4.4-3.1-7.3-3.1c-5.7,0-10.3,4.6-10.3,10.3c0,5.7,4.6,10.3,10.3,10.3c2.6,0,5-0.9,6.8-2.5L176.6,45.4L176.6,45.4z"/>
	<path class="st0" d="M214.6,44.7h-19v10.9c0,1.2-0.9,2.1-2.1,2.1c-1.2,0-2.1-0.9-2.1-2.1V31.3c0-1.2,0.9-2.1,2.1-2.1
		c1.2,0,2.1,0.9,2.1,2.1v9.4h19v-9.4c0-1.2,0.9-2.1,2.1-2.1c1.2,0,2.1,0.9,2.1,2.1v24.3c0,1.2-0.9,2.1-2.1,2.1
		c-1.2,0-2.1-0.9-2.1-2.1V44.7z"/>
	<path class="st0" d="M242.2,57.9c-8,0-14.4-6.4-14.4-14.4c0-8,6.4-14.4,14.4-14.4c4,0,7.6,1.6,10.2,4.2c0.8,0.8,0.8,2.1,0,2.9
		c-0.8,0.8-2.1,0.9-3,0.1c-1.9-1.9-4.4-3.1-7.3-3.1c-5.7,0-10.3,4.6-10.3,10.3c0,5.7,4.6,10.3,10.3,10.3c2.9,0,5.4-1.1,7.3-3
		c0.8-0.8,2.1-0.8,2.9,0c0.8,0.8,0.8,2.1,0,2.9C249.8,56.3,246.3,57.9,242.2,57.9z"/>
	<path class="st0" d="M285.3,44.7h-19v10.9c0,1.2-0.9,2.1-2.1,2.1c-1.2,0-2.1-0.9-2.1-2.1V31.3c0-1.2,0.9-2.1,2.1-2.1
		c1.2,0,2.1,0.9,2.1,2.1v9.4h19v-9.4c0-1.2,0.9-2.1,2.1-2.1c1.2,0,2.1,0.9,2.1,2.1v24.3c0,1.2-0.9,2.1-2.1,2.1
		c-1.2,0-2.1-0.9-2.1-2.1V44.7z"/>
	<path class="st0" d="M315.6,31l11.7,23c0.2,0.5,0.5,1.2,0.5,1.7c0,1.2-0.7,1.8-1.9,1.8c-0.8,0-1.7-0.2-2.2-1.4l-3.6-7.2H305
		l-3.5,7.2c-0.6,1.2-1.4,1.4-2.2,1.4c-1.2,0-1.9-0.7-1.9-1.8c0-0.6,0.2-1.2,0.5-1.7l11.7-23c0.7-1.6,2.2-1.8,3.1-1.8
		C313.4,29.2,314.9,29.5,315.6,31z M307,45.1h11.1l-5.5-11.1L307,45.1z"/>
	<path class="st0" d="M350.6,29.4c5,0,9,3.6,9,8.6c0,4.4-3.1,7.7-7.3,8.4l7.5,7.9c0.7,0.7,1,2.1,0.2,2.8c-0.8,0.8-2.4,0.6-3.2-0.3
		l-9.7-10.2h-7.3v9.1c0,1.2-0.9,2-2.1,2c-1.2,0-2.1-0.9-2.1-2.1V31.5c0-1.2,0.9-2.1,2.1-2.1C337.8,29.4,350.6,29.4,350.6,29.4z
		 M339.8,33.4v9.2h10.8c2.9,0,4.9-2,4.9-4.6c0-2.6-2-4.6-4.9-4.6L339.8,33.4L339.8,33.4z"/>
	<path class="st0" d="M378.4,33.4h-10.3c-1.2,0-2.1-0.8-2.1-2c0-1.2,0.9-2,2.1-2h24.8c1.2,0,2.1,0.8,2.1,2c0,1.2-0.9,2-2.1,2h-10.3
		v22.2c0,1.2-0.9,2.1-2.1,2.1c-1.2,0-2.1-0.9-2.1-2.1V33.4z"/>
	<path class="st0" d="M404.8,40.5c0-10.3,6.4-11.6,11.1-11.6c1.2,0,2.1,0.9,2.1,2.1c0,1.2-0.9,2.1-2.1,2.1c-3.9,0-7,0.8-7,7.4v5.8
		c0,10.3-6.4,11.6-11.1,11.6c-1.2,0-2.1-0.9-2.1-2.1c0-1.2,0.9-2.1,2.1-2.1c3.9,0,7-0.8,7-7.4L404.8,40.5L404.8,40.5z"/>
</g>
<polygon class="st1" points="47.1,1 34.6,30.2 18.2,68.6 56.4,52.4 76.7,43.9 "/>
<polygon class="st2" points="53.5,36.3 56.4,52.4 76.7,43.9 "/>
<polygon class="st3" points="47.1,1 53.5,36.3 76.7,43.9 "/>
<polygon class="st4" points="53.5,36.3 76.7,43.9 34.6,30.2 18.2,68.6 56.4,52.4 "/>
<polygon class="st5" points="18.2,68.6 34.6,30.2 0.8,19.2 "/>
<polygon class="st3" points="56.4,52.4 60.1,73 76.7,43.9 "/>
<polygon class="st1" points="47.1,1 34.6,30.2 53.5,36.3 "/>
</svg>
